<?xml version="1.0" encoding="UTF-8"?>
<svg xmlns="http://www.w3.org/2000/svg" xmlns:xlink="http://www.w3.org/1999/xlink" width="px" height="25px" viewBox="0 0 18 25" version="1.1">
<g id="surface1">
<path style=" stroke:none;fill-rule:nonzero;fill:rgb(0%,0%,0%);fill-opacity:1;" d="M 11.496094 1.683594 C 10.203125 2.550781 8.617188 3.609375 7.980469 4.039062 C 6.984375 4.707031 5.621094 5.625 5.023438 6.035156 C 4.234375 6.578125 3.539062 7.28125 3.199219 7.878906 C 2.371094 9.328125 2.148438 11.027344 2.566406 12.640625 C 3.15625 14.921875 5.011719 16.726562 7.347656 17.296875 C 7.929688 17.4375 8.300781 17.480469 8.949219 17.480469 C 9.460938 17.480469 9.640625 17.46875 10.050781 17.398438 C 11.730469 17.121094 13.253906 16.21875 14.28125 14.882812 C 15.730469 13.007812 16.019531 10.5 15.035156 8.363281 C 14.59375 7.410156 13.941406 6.585938 13.082031 5.914062 C 12.984375 5.839844 12.898438 5.773438 12.882812 5.765625 C 12.863281 5.753906 12.71875 5.847656 12.230469 6.179688 C 11.882812 6.414062 11.59375 6.613281 11.585938 6.621094 C 11.570312 6.636719 11.597656 6.660156 11.71875 6.730469 C 12.175781 6.996094 12.636719 7.394531 12.984375 7.816406 C 13.128906 7.992188 13.363281 8.332031 13.363281 8.359375 C 13.363281 8.386719 13.304688 8.472656 13.101562 8.738281 C 12.78125 9.152344 12.613281 9.390625 12.613281 9.425781 C 12.613281 9.441406 12.679688 9.609375 12.757812 9.796875 C 12.882812 10.085938 12.910156 10.136719 12.945312 10.152344 C 12.964844 10.160156 13.113281 10.183594 13.265625 10.203125 C 13.570312 10.246094 14.070312 10.324219 14.078125 10.332031 C 14.082031 10.335938 14.09375 10.425781 14.109375 10.535156 C 14.140625 10.792969 14.140625 11.238281 14.109375 11.503906 C 14.078125 11.757812 14.011719 12.105469 13.988281 12.128906 C 13.980469 12.136719 13.835938 12.164062 13.664062 12.191406 C 13.496094 12.21875 13.324219 12.242188 13.28125 12.253906 C 13.242188 12.257812 13.15625 12.269531 13.09375 12.28125 C 13.027344 12.289062 12.949219 12.304688 12.917969 12.324219 C 12.863281 12.351562 12.859375 12.359375 12.757812 12.636719 C 12.703125 12.789062 12.640625 12.960938 12.621094 13.011719 C 12.59375 13.070312 12.585938 13.109375 12.597656 13.121094 C 12.605469 13.132812 12.742188 13.304688 12.90625 13.507812 L 13.203125 13.882812 L 13.164062 13.933594 C 12.964844 14.230469 12.585938 14.621094 12.234375 14.894531 C 12.097656 15.003906 11.832031 15.183594 11.8125 15.183594 C 11.808594 15.183594 11.746094 15.148438 11.675781 15.101562 L 11.550781 15.019531 L 11.542969 6.644531 L 11.039062 6.988281 L 10.539062 7.328125 L 10.527344 9.324219 C 10.523438 10.421875 10.519531 12.214844 10.515625 13.308594 C 10.511719 14.398438 10.507812 15.410156 10.5 15.550781 L 10.492188 15.808594 L 10.265625 15.863281 C 10.039062 15.917969 9.632812 15.992188 9.554688 15.992188 L 9.511719 15.992188 L 9.511719 11.984375 C 9.511719 9.769531 9.503906 7.980469 9.496094 7.984375 C 9.492188 7.988281 9.261719 8.140625 8.988281 8.324219 L 8.496094 8.660156 L 8.484375 10.160156 C 8.480469 10.980469 8.476562 12.136719 8.476562 12.726562 C 8.476562 13.316406 8.46875 14.285156 8.464844 14.882812 L 8.457031 15.960938 L 8.410156 15.960938 C 8.332031 15.960938 8.015625 15.90625 7.738281 15.839844 L 7.476562 15.777344 L 7.472656 12.546875 C 7.46875 9.921875 7.46875 9.316406 7.449219 9.320312 C 7.441406 9.324219 7.210938 9.476562 6.941406 9.660156 L 6.449219 9.992188 L 6.449219 12.65625 C 6.449219 14.511719 6.445312 15.316406 6.433594 15.316406 C 6.40625 15.316406 6.105469 15.128906 5.929688 15 C 4.921875 14.269531 4.1875 13.15625 3.945312 11.988281 C 3.929688 11.902344 3.90625 11.796875 3.898438 11.757812 C 3.886719 11.714844 3.882812 11.632812 3.886719 11.582031 C 3.894531 11.515625 3.890625 11.492188 3.882812 11.515625 C 3.875 11.542969 3.871094 11.519531 3.875 11.449219 C 3.878906 11.382812 3.878906 11.363281 3.871094 11.390625 C 3.859375 11.433594 3.859375 11.433594 3.855469 11.398438 C 3.855469 11.378906 3.847656 11.269531 3.839844 11.148438 C 3.824219 10.914062 3.839844 10.507812 3.878906 10.253906 C 4.082031 8.898438 4.859375 7.660156 6.015625 6.855469 C 6.175781 6.746094 6.277344 6.679688 6.476562 6.570312 C 6.566406 6.519531 7.273438 6.050781 8.054688 5.527344 C 8.835938 5 10.234375 4.0625 11.164062 3.4375 L 12.859375 2.304688 L 13.234375 1.492188 C 13.4375 1.046875 13.667969 0.550781 13.738281 0.390625 C 13.8125 0.234375 13.867188 0.101562 13.863281 0.101562 C 13.855469 0.105469 12.792969 0.8125 11.496094 1.683594 Z M 11.496094 1.683594 "/>
<path style=" stroke:none;fill-rule:nonzero;fill:rgb(0%,0%,0%);fill-opacity:1;" d="M 10.726562 4.683594 C 9.558594 5.464844 7.84375 6.613281 6.914062 7.234375 L 5.226562 8.359375 L 5.222656 9.132812 C 5.222656 9.640625 5.222656 9.90625 5.234375 9.898438 C 5.242188 9.898438 6.960938 8.75 9.050781 7.351562 L 12.855469 4.808594 L 12.855469 4.03125 C 12.855469 3.605469 12.851562 3.257812 12.851562 3.257812 C 12.847656 3.257812 11.890625 3.898438 10.726562 4.683594 Z M 10.726562 4.683594 "/>
<path style=" stroke:none;fill-rule:nonzero;fill:rgb(0%,0%,0%);fill-opacity:1;" d="M 6.328125 6.714844 C 5.960938 6.933594 5.695312 7.136719 5.386719 7.4375 C 5.195312 7.621094 5.191406 7.625 5.339844 7.488281 C 5.589844 7.261719 5.890625 7.027344 6.21875 6.816406 C 6.496094 6.632812 6.539062 6.601562 6.523438 6.601562 C 6.519531 6.601562 6.433594 6.652344 6.328125 6.714844 Z M 6.328125 6.714844 "/>
<path style=" stroke:none;fill-rule:nonzero;fill:rgb(0%,0%,0%);fill-opacity:1;" d="M 0 22.21875 L 0 24.914062 L 1.144531 24.90625 C 2.210938 24.902344 2.300781 24.898438 2.484375 24.871094 C 2.8125 24.820312 3.035156 24.753906 3.261719 24.644531 C 3.664062 24.445312 3.925781 24.144531 4.035156 23.746094 C 4.082031 23.578125 4.09375 23.203125 4.058594 23.03125 C 3.964844 22.570312 3.644531 22.242188 3.144531 22.085938 C 3.074219 22.066406 3.015625 22.042969 3.015625 22.035156 C 3.015625 22.027344 3.070312 21.996094 3.140625 21.960938 C 3.355469 21.847656 3.558594 21.628906 3.660156 21.390625 C 3.800781 21.070312 3.808594 20.648438 3.679688 20.34375 C 3.507812 19.929688 3.097656 19.675781 2.421875 19.5625 C 2.292969 19.539062 2.121094 19.535156 1.136719 19.53125 L 0 19.527344 Z M 2.113281 20.296875 C 2.457031 20.347656 2.675781 20.484375 2.761719 20.699219 C 2.8125 20.824219 2.820312 21.074219 2.777344 21.210938 C 2.6875 21.5 2.414062 21.675781 1.980469 21.726562 C 1.910156 21.734375 1.660156 21.742188 1.421875 21.742188 L 0.988281 21.742188 L 0.988281 20.277344 L 1.480469 20.277344 C 1.832031 20.277344 2.011719 20.28125 2.113281 20.296875 Z M 2.277344 22.496094 C 2.730469 22.578125 2.988281 22.757812 3.066406 23.054688 C 3.097656 23.167969 3.097656 23.398438 3.066406 23.511719 C 2.988281 23.808594 2.761719 24.007812 2.398438 24.097656 C 2.191406 24.148438 1.964844 24.164062 1.449219 24.164062 L 0.988281 24.164062 L 0.988281 22.457031 L 1.566406 22.464844 C 2.003906 22.46875 2.171875 22.476562 2.277344 22.496094 Z M 2.277344 22.496094 "/>
<path style=" stroke:none;fill-rule:nonzero;fill:rgb(0%,0%,0%);fill-opacity:1;" d="M 5.113281 22.21875 L 5.113281 24.910156 L 6.105469 24.910156 L 6.105469 20.320312 L 8.488281 20.320312 L 8.488281 19.527344 L 5.113281 19.527344 Z M 5.113281 22.21875 "/>
<path style=" stroke:none;fill-rule:nonzero;fill:rgb(0%,0%,0%);fill-opacity:1;" d="M 8.96875 19.921875 L 8.96875 20.320312 L 10.558594 20.320312 L 10.558594 24.910156 L 11.550781 24.910156 L 11.554688 22.621094 L 11.558594 20.328125 L 12.363281 20.324219 L 13.171875 20.320312 L 13.171875 19.527344 L 8.96875 19.527344 Z M 8.96875 19.921875 "/>
<path style=" stroke:none;fill-rule:nonzero;fill:rgb(0%,0%,0%);fill-opacity:1;" d="M 13.46875 19.566406 C 13.46875 19.570312 13.894531 20.472656 14.414062 21.574219 L 15.363281 23.574219 L 15.285156 23.726562 C 15.242188 23.808594 15.179688 23.902344 15.140625 23.945312 C 15.019531 24.070312 14.835938 24.132812 14.59375 24.132812 C 14.503906 24.132812 14.300781 24.105469 14.25 24.085938 C 14.230469 24.074219 14.210938 24.140625 14.128906 24.488281 C 14.074219 24.71875 14.03125 24.90625 14.03125 24.90625 C 14.035156 24.910156 14.089844 24.925781 14.152344 24.941406 C 14.308594 24.980469 14.746094 25 14.921875 24.96875 C 15.0625 24.949219 15.25 24.894531 15.351562 24.839844 C 15.648438 24.695312 15.910156 24.417969 16.105469 24.039062 C 16.144531 23.96875 16.585938 22.929688 17.085938 21.730469 L 17.996094 19.558594 L 17.003906 19.558594 L 16.609375 20.574219 C 16.394531 21.132812 16.125 21.835938 16.015625 22.136719 C 15.90625 22.433594 15.808594 22.683594 15.800781 22.683594 C 15.78125 22.683594 15.773438 22.660156 15.511719 21.984375 C 15.421875 21.75 15.152344 21.109375 14.914062 20.558594 L 14.484375 19.558594 L 13.976562 19.558594 C 13.699219 19.558594 13.46875 19.5625 13.46875 19.566406 Z M 13.46875 19.566406 "/>
</g>
</svg>
