<?xml version="1.0" encoding="UTF-8"?>
<svg xmlns="http://www.w3.org/2000/svg" xmlns:xlink="http://www.w3.org/1999/xlink" width="px" height="25px" viewBox="0 0 21 25" version="1.1">
<g id="surface1">
<path style=" stroke:none;fill-rule:nonzero;fill:rgb(0%,0%,0%);fill-opacity:1;" d="M 7.644531 0.5625 C 7.523438 0.855469 7.421875 1.09375 7.417969 1.09375 C 7.410156 1.09375 7.15625 0.996094 6.851562 0.878906 C 6.542969 0.757812 6.292969 0.664062 6.292969 0.671875 C 6.292969 0.675781 6.390625 0.914062 6.511719 1.199219 L 6.730469 1.722656 L 6.628906 1.761719 C 6.574219 1.785156 6.332031 1.878906 6.09375 1.972656 C 5.855469 2.066406 5.65625 2.148438 5.65625 2.15625 C 5.65625 2.164062 5.90625 2.277344 6.214844 2.40625 C 6.519531 2.535156 6.769531 2.640625 6.769531 2.644531 C 6.769531 2.648438 6.660156 2.898438 6.53125 3.203125 C 6.398438 3.507812 6.296875 3.761719 6.300781 3.769531 C 6.304688 3.773438 6.554688 3.675781 6.847656 3.550781 C 7.148438 3.421875 7.398438 3.328125 7.40625 3.335938 C 7.417969 3.351562 7.527344 3.59375 7.644531 3.882812 C 7.765625 4.171875 7.871094 4.40625 7.882812 4.40625 C 7.890625 4.40625 7.96875 4.234375 8.054688 4.023438 C 8.140625 3.8125 8.242188 3.570312 8.28125 3.476562 L 8.355469 3.316406 L 8.902344 3.550781 C 9.203125 3.675781 9.453125 3.777344 9.453125 3.773438 C 9.460938 3.769531 9.367188 3.539062 9.246094 3.257812 C 9.128906 2.976562 9.023438 2.722656 9.007812 2.691406 C 8.996094 2.644531 9.078125 2.601562 9.550781 2.402344 C 9.855469 2.273438 10.105469 2.164062 10.105469 2.15625 C 10.105469 2.148438 9.867188 2.050781 9.578125 1.9375 C 9.289062 1.828125 9.046875 1.726562 9.042969 1.71875 C 9.035156 1.710938 9.128906 1.46875 9.246094 1.1875 C 9.367188 0.90625 9.464844 0.671875 9.460938 0.667969 C 9.457031 0.664062 9.207031 0.757812 8.902344 0.878906 C 8.597656 1 8.34375 1.089844 8.339844 1.085938 C 8.316406 1.066406 7.914062 0.09375 7.914062 0.0625 C 7.914062 -0.0429688 7.839844 0.09375 7.644531 0.5625 Z M 8.070312 0.882812 C 8.164062 1.109375 8.242188 1.300781 8.246094 1.304688 C 8.25 1.308594 8.449219 1.234375 8.691406 1.140625 C 8.933594 1.046875 9.136719 0.976562 9.144531 0.980469 C 9.148438 0.984375 9.078125 1.175781 8.976562 1.402344 C 8.804688 1.8125 8.804688 1.816406 8.875 1.84375 C 8.914062 1.863281 9.105469 1.9375 9.296875 2.007812 C 9.488281 2.085938 9.640625 2.15625 9.640625 2.171875 C 9.636719 2.191406 9.152344 2.410156 8.84375 2.53125 C 8.773438 2.558594 8.777344 2.566406 8.960938 3.007812 C 9.0625 3.253906 9.144531 3.457031 9.136719 3.464844 C 9.128906 3.472656 8.941406 3.398438 8.714844 3.300781 C 8.488281 3.203125 8.292969 3.125 8.277344 3.125 C 8.257812 3.125 8.191406 3.261719 8.121094 3.429688 C 8.054688 3.597656 7.96875 3.796875 7.9375 3.875 L 7.878906 4.015625 L 7.695312 3.578125 C 7.59375 3.339844 7.492188 3.136719 7.476562 3.132812 C 7.460938 3.128906 7.265625 3.203125 7.042969 3.300781 C 6.820312 3.394531 6.628906 3.464844 6.621094 3.460938 C 6.613281 3.449219 6.6875 3.257812 6.78125 3.023438 C 6.878906 2.792969 6.960938 2.59375 6.960938 2.578125 C 6.960938 2.558594 6.757812 2.460938 6.515625 2.363281 C 6.269531 2.261719 6.070312 2.175781 6.070312 2.171875 C 6.070312 2.164062 6.621094 1.945312 6.886719 1.839844 C 6.953125 1.816406 6.953125 1.808594 6.78125 1.414062 C 6.6875 1.195312 6.613281 1.007812 6.617188 0.992188 C 6.621094 0.980469 6.820312 1.046875 7.054688 1.136719 C 7.289062 1.230469 7.492188 1.300781 7.5 1.296875 C 7.507812 1.289062 7.59375 1.101562 7.691406 0.878906 C 7.78125 0.652344 7.867188 0.46875 7.878906 0.46875 C 7.886719 0.46875 7.972656 0.65625 8.070312 0.882812 Z M 8.070312 0.882812 "/>
<path style=" stroke:none;fill-rule:nonzero;fill:rgb(0%,0%,0%);fill-opacity:1;" d="M 13.109375 0.5625 C 12.988281 0.855469 12.878906 1.09375 12.871094 1.09375 C 12.859375 1.089844 12.613281 0.996094 12.316406 0.878906 C 12.019531 0.761719 11.769531 0.667969 11.765625 0.675781 C 11.757812 0.679688 11.847656 0.902344 11.960938 1.175781 C 12.078125 1.445312 12.171875 1.679688 12.171875 1.699219 C 12.171875 1.71875 11.9375 1.824219 11.648438 1.9375 C 11.359375 2.050781 11.121094 2.148438 11.121094 2.15625 C 11.121094 2.164062 11.375 2.277344 11.679688 2.40625 C 11.988281 2.535156 12.230469 2.652344 12.222656 2.671875 C 12.214844 2.6875 12.109375 2.941406 11.984375 3.230469 C 11.859375 3.523438 11.761719 3.765625 11.769531 3.769531 C 11.773438 3.773438 12.019531 3.675781 12.316406 3.550781 C 12.613281 3.421875 12.863281 3.328125 12.875 3.335938 C 12.882812 3.351562 12.992188 3.59375 13.109375 3.882812 C 13.230469 4.171875 13.335938 4.40625 13.34375 4.40625 C 13.355469 4.40625 13.433594 4.234375 13.519531 4.023438 C 13.605469 3.8125 13.710938 3.570312 13.746094 3.476562 L 13.820312 3.316406 L 14.363281 3.550781 C 14.664062 3.675781 14.910156 3.78125 14.917969 3.78125 C 14.921875 3.78125 14.832031 3.554688 14.714844 3.273438 C 14.597656 2.992188 14.492188 2.738281 14.480469 2.699219 C 14.460938 2.640625 14.511719 2.617188 15.015625 2.402344 C 15.320312 2.273438 15.570312 2.164062 15.570312 2.15625 C 15.570312 2.148438 15.335938 2.050781 15.046875 1.941406 C 14.757812 1.832031 14.515625 1.730469 14.507812 1.71875 C 14.5 1.710938 14.59375 1.46875 14.710938 1.183594 C 14.832031 0.902344 14.925781 0.667969 14.921875 0.664062 C 14.921875 0.664062 14.671875 0.757812 14.367188 0.878906 C 14.066406 1 13.8125 1.089844 13.800781 1.082031 C 13.792969 1.074219 13.695312 0.84375 13.578125 0.570312 C 13.46875 0.300781 13.363281 0.0703125 13.355469 0.0546875 C 13.339844 0.0429688 13.234375 0.273438 13.109375 0.5625 Z M 13.535156 0.890625 C 13.628906 1.121094 13.710938 1.3125 13.710938 1.3125 C 13.714844 1.3125 13.914062 1.234375 14.15625 1.140625 C 14.398438 1.046875 14.601562 0.976562 14.609375 0.976562 C 14.613281 0.984375 14.539062 1.167969 14.445312 1.394531 C 14.351562 1.617188 14.285156 1.804688 14.292969 1.820312 C 14.308594 1.832031 14.496094 1.910156 14.707031 1.992188 C 14.921875 2.074219 15.101562 2.152344 15.101562 2.167969 C 15.097656 2.183594 14.917969 2.273438 14.691406 2.367188 C 14.46875 2.460938 14.277344 2.546875 14.261719 2.558594 C 14.253906 2.570312 14.328125 2.773438 14.429688 3.015625 C 14.53125 3.257812 14.609375 3.460938 14.601562 3.464844 C 14.59375 3.472656 14.402344 3.398438 14.179688 3.300781 C 13.953125 3.203125 13.757812 3.125 13.742188 3.125 C 13.726562 3.125 13.632812 3.316406 13.539062 3.550781 C 13.441406 3.785156 13.355469 3.976562 13.347656 3.984375 C 13.339844 3.992188 13.253906 3.808594 13.160156 3.585938 C 13.066406 3.355469 12.976562 3.160156 12.964844 3.144531 C 12.949219 3.128906 12.753906 3.195312 12.519531 3.292969 C 12.289062 3.390625 12.09375 3.460938 12.082031 3.457031 C 12.078125 3.445312 12.148438 3.25 12.246094 3.019531 C 12.347656 2.789062 12.425781 2.585938 12.425781 2.570312 C 12.425781 2.558594 12.226562 2.460938 11.980469 2.363281 C 11.734375 2.261719 11.535156 2.175781 11.535156 2.171875 C 11.535156 2.164062 11.726562 2.085938 11.957031 1.996094 C 12.1875 1.90625 12.382812 1.828125 12.390625 1.820312 C 12.402344 1.816406 12.332031 1.628906 12.238281 1.402344 C 12.144531 1.179688 12.074219 0.992188 12.082031 0.984375 C 12.089844 0.976562 12.285156 1.046875 12.519531 1.140625 C 12.757812 1.230469 12.960938 1.296875 12.972656 1.289062 C 12.980469 1.273438 13.066406 1.085938 13.15625 0.867188 C 13.25 0.648438 13.332031 0.46875 13.34375 0.46875 C 13.355469 0.46875 13.441406 0.660156 13.535156 0.890625 Z M 13.535156 0.890625 "/>
<path style=" stroke:none;fill-rule:nonzero;fill:rgb(0%,0%,0%);fill-opacity:1;" d="M 9.445312 5.203125 C 6.15625 5.570312 3.316406 7.511719 1.84375 10.402344 C 1.371094 11.335938 1.089844 12.210938 0.910156 13.3125 C 0.855469 13.675781 0.84375 13.867188 0.84375 14.671875 C 0.84375 15.480469 0.855469 15.667969 0.914062 16.046875 C 1.183594 17.746094 1.859375 19.273438 2.921875 20.59375 C 3.25 21.003906 4.046875 21.785156 4.460938 22.109375 C 5.855469 23.195312 7.453125 23.863281 9.28125 24.113281 C 9.835938 24.191406 11.175781 24.191406 11.710938 24.117188 C 12.90625 23.945312 13.78125 23.679688 14.808594 23.179688 C 15.796875 22.703125 16.574219 22.148438 17.367188 21.363281 C 18.894531 19.847656 19.796875 18.039062 20.105469 15.890625 C 20.191406 15.289062 20.183594 13.929688 20.09375 13.34375 C 19.855469 11.839844 19.371094 10.59375 18.542969 9.375 C 18.160156 8.808594 17.910156 8.515625 17.339844 7.949219 C 16.753906 7.375 16.472656 7.148438 15.828125 6.726562 C 14.617188 5.929688 13.3125 5.449219 11.789062 5.230469 C 11.3125 5.164062 9.949219 5.148438 9.445312 5.203125 Z M 11.140625 5.46875 C 14.089844 5.683594 16.679688 7.164062 18.316406 9.574219 C 19.339844 11.082031 19.867188 12.796875 19.867188 14.65625 C 19.871094 15.316406 19.84375 15.660156 19.730469 16.28125 C 19.117188 19.761719 16.46875 22.617188 12.980469 23.558594 C 12.164062 23.78125 11.417969 23.875 10.503906 23.875 C 8.976562 23.875 7.710938 23.585938 6.335938 22.921875 C 5.425781 22.480469 4.605469 21.902344 3.878906 21.1875 C 1.519531 18.871094 0.59375 15.558594 1.414062 12.375 C 1.824219 10.789062 2.667969 9.339844 3.875 8.152344 C 5.296875 6.753906 7.054688 5.871094 9.03125 5.5625 C 9.789062 5.445312 10.421875 5.417969 11.140625 5.46875 Z M 11.140625 5.46875 "/>
<path style=" stroke:none;fill-rule:nonzero;fill:rgb(0%,0%,0%);fill-opacity:1;" d="M 9.882812 6.378906 C 8.417969 6.484375 7.015625 6.960938 5.792969 7.769531 C 5.269531 8.117188 4.984375 8.347656 4.527344 8.796875 C 3.371094 9.929688 2.601562 11.304688 2.242188 12.882812 C 2 13.945312 1.984375 15.148438 2.195312 16.234375 C 2.800781 19.304688 5.078125 21.757812 8.160156 22.652344 C 9.417969 23.019531 10.957031 23.070312 12.265625 22.796875 C 13.515625 22.53125 14.753906 21.960938 15.75 21.183594 C 16.113281 20.898438 16.777344 20.253906 17.074219 19.890625 C 18.792969 17.796875 19.375 15.015625 18.636719 12.398438 C 17.980469 10.085938 16.234375 8.089844 13.984375 7.09375 C 13.066406 6.683594 12.101562 6.449219 11.042969 6.375 C 10.546875 6.339844 10.414062 6.339844 9.882812 6.378906 Z M 11.566406 7.296875 L 11.566406 7.5625 L 11.070312 7.5625 C 10.722656 7.566406 10.550781 7.574219 10.519531 7.601562 C 10.457031 7.648438 10.359375 7.785156 10.359375 7.820312 C 10.359375 7.835938 10.632812 7.84375 10.964844 7.84375 L 11.566406 7.84375 L 11.566406 8.34375 L 10.363281 8.34375 L 10.355469 8.742188 L 10.34375 9.140625 L 10.082031 9.148438 L 9.820312 9.160156 L 9.820312 8.347656 L 9.621094 8.335938 C 9.511719 8.332031 9.425781 8.320312 9.433594 8.304688 C 9.433594 8.289062 9.4375 8.179688 9.4375 8.0625 L 9.4375 7.84375 L 9.820312 7.84375 L 9.820312 7.734375 C 9.820312 7.429688 10.082031 7.148438 10.445312 7.066406 C 10.511719 7.050781 10.792969 7.039062 11.070312 7.035156 L 11.566406 7.03125 Z M 11.058594 10.84375 C 11.34375 11.523438 11.578125 12.082031 11.582031 12.085938 C 11.585938 12.089844 11.722656 12.039062 11.890625 11.972656 C 13.710938 11.234375 14.148438 11.058594 14.160156 11.070312 C 14.167969 11.078125 14.007812 11.476562 13.804688 11.957031 C 13.269531 13.234375 13.117188 13.597656 13.132812 13.605469 C 13.132812 13.613281 13.65625 13.820312 14.285156 14.078125 C 15.839844 14.707031 15.722656 14.65625 15.667969 14.6875 C 15.640625 14.699219 15.0625 14.941406 14.378906 15.21875 C 13.699219 15.492188 13.136719 15.726562 13.132812 15.730469 C 13.121094 15.742188 13.398438 16.414062 13.902344 17.605469 C 14.054688 17.964844 14.171875 18.261719 14.164062 18.269531 C 14.15625 18.277344 13.175781 17.886719 11.90625 17.367188 C 11.734375 17.300781 11.59375 17.246094 11.585938 17.253906 C 11.578125 17.257812 11.335938 17.832031 11.042969 18.523438 C 10.746094 19.21875 10.5 19.773438 10.488281 19.757812 C 10.472656 19.746094 10.234375 19.179688 9.945312 18.5 C 9.660156 17.820312 9.425781 17.257812 9.417969 17.253906 C 9.410156 17.242188 8.785156 17.488281 7.582031 17.980469 C 7.179688 18.148438 6.84375 18.273438 6.839844 18.265625 C 6.828125 18.257812 6.988281 17.867188 7.757812 16.035156 C 7.828125 15.871094 7.878906 15.738281 7.875 15.730469 C 7.867188 15.726562 7.320312 15.503906 6.65625 15.234375 C 5.992188 14.960938 5.414062 14.726562 5.371094 14.703125 L 5.292969 14.660156 L 5.417969 14.605469 C 5.488281 14.578125 6.058594 14.34375 6.691406 14.085938 C 7.320312 13.832031 7.84375 13.613281 7.855469 13.601562 C 7.867188 13.585938 7.808594 13.414062 7.726562 13.21875 C 7.09375 11.726562 6.828125 11.085938 6.84375 11.070312 C 6.851562 11.066406 7.265625 11.222656 7.761719 11.421875 C 9.289062 12.042969 9.417969 12.09375 9.421875 12.085938 C 9.425781 12.082031 9.640625 11.570312 9.898438 10.953125 C 10.519531 9.472656 10.488281 9.546875 10.515625 9.582031 C 10.527344 9.597656 10.773438 10.164062 11.058594 10.84375 Z M 17.792969 13.621094 C 18.230469 13.707031 18.417969 14.25 18.128906 14.585938 L 18.050781 14.679688 L 18.117188 14.738281 C 18.351562 14.945312 18.316406 15.382812 18.050781 15.601562 C 17.890625 15.738281 17.769531 15.753906 17.019531 15.742188 L 16.320312 15.734375 L 16.320312 14.203125 L 16.628906 14.195312 L 16.9375 14.183594 L 16.9375 14.4375 L 17.238281 14.4375 C 17.480469 14.4375 17.539062 14.429688 17.554688 14.386719 C 17.585938 14.304688 17.578125 14.195312 17.53125 14.160156 C 17.503906 14.140625 17.269531 14.121094 16.902344 14.117188 L 16.320312 14.109375 L 16.308594 13.894531 C 16.304688 13.773438 16.304688 13.660156 16.316406 13.632812 C 16.328125 13.601562 16.46875 13.59375 16.992188 13.59375 C 17.355469 13.597656 17.71875 13.609375 17.792969 13.621094 Z M 4.734375 13.875 L 4.734375 14.125 L 4.089844 14.125 C 3.414062 14.125 3.367188 14.132812 3.367188 14.265625 C 3.367188 14.390625 3.421875 14.40625 3.90625 14.40625 C 4.425781 14.40625 4.558594 14.445312 4.714844 14.621094 C 4.984375 14.945312 4.851562 15.542969 4.472656 15.683594 C 4.417969 15.707031 4.0625 15.71875 3.554688 15.71875 L 2.734375 15.71875 L 2.734375 15.21875 L 3.347656 15.21875 C 4.027344 15.21875 4.132812 15.199219 4.132812 15.082031 C 4.132812 14.933594 4.03125 14.90625 3.558594 14.90625 C 3.15625 14.90625 3.113281 14.898438 2.957031 14.824219 C 2.710938 14.703125 2.621094 14.554688 2.621094 14.261719 C 2.621094 14.0625 2.632812 14.023438 2.71875 13.902344 C 2.769531 13.832031 2.875 13.738281 2.953125 13.695312 C 3.089844 13.628906 3.113281 13.625 3.914062 13.625 L 4.734375 13.625 Z M 11.425781 20.484375 L 11.425781 20.734375 L 10.378906 20.765625 L 10.316406 20.871094 C 10.269531 20.945312 10.25 21.054688 10.238281 21.234375 C 10.222656 21.507812 10.257812 21.664062 10.363281 21.792969 C 10.425781 21.875 10.429688 21.875 10.933594 21.875 L 11.441406 21.875 L 11.441406 22.40625 L 10.828125 22.40625 C 10.269531 22.40625 10.203125 22.398438 10.089844 22.339844 C 9.898438 22.242188 9.792969 22.132812 9.683594 21.90625 C 9.585938 21.710938 9.582031 21.6875 9.582031 21.328125 C 9.582031 20.988281 9.589844 20.9375 9.667969 20.773438 C 9.769531 20.554688 9.996094 20.335938 10.179688 20.269531 C 10.28125 20.234375 10.441406 20.226562 10.867188 20.226562 L 11.425781 20.234375 Z M 11.425781 20.484375 "/>
<path style=" stroke:none;fill-rule:nonzero;fill:rgb(0%,0%,0%);fill-opacity:1;" d="M 10.382812 7.167969 C 10.070312 7.277344 9.929688 7.445312 9.894531 7.75 L 9.875 7.90625 L 9.503906 7.90625 L 9.503906 8.25 L 9.882812 8.25 L 9.882812 9.0625 L 10.296875 9.0625 L 10.296875 8.25 L 11.507812 8.25 L 11.496094 8.085938 L 11.488281 7.921875 L 10.894531 7.914062 L 10.296875 7.90625 L 10.296875 7.816406 C 10.296875 7.765625 10.324219 7.691406 10.363281 7.644531 C 10.484375 7.492188 10.574219 7.46875 11.058594 7.46875 L 11.503906 7.46875 L 11.503906 7.125 L 11.003906 7.125 C 10.664062 7.128906 10.464844 7.140625 10.382812 7.167969 Z M 10.382812 7.167969 "/>
<path style=" stroke:none;fill-rule:nonzero;fill:rgb(0%,0%,0%);fill-opacity:1;" d="M 16.398438 13.859375 L 16.398438 14.03125 L 16.953125 14.03125 C 17.429688 14.03125 17.515625 14.039062 17.570312 14.085938 C 17.671875 14.164062 17.691406 14.339844 17.613281 14.4375 C 17.550781 14.511719 17.53125 14.515625 17.203125 14.515625 L 16.859375 14.515625 L 16.847656 14.398438 L 16.839844 14.28125 L 16.398438 14.28125 L 16.398438 15.65625 L 17.097656 15.65625 C 17.890625 15.65625 17.980469 15.632812 18.113281 15.421875 C 18.257812 15.195312 18.183594 14.796875 17.988281 14.734375 C 17.90625 14.710938 17.90625 14.679688 18.007812 14.589844 C 18.277344 14.34375 18.222656 13.898438 17.90625 13.75 C 17.789062 13.695312 17.710938 13.6875 17.089844 13.6875 L 16.398438 13.6875 Z M 17.59375 14.898438 C 17.640625 14.929688 17.703125 15.046875 17.703125 15.105469 C 17.703125 15.132812 17.671875 15.183594 17.636719 15.21875 C 17.582031 15.273438 17.53125 15.28125 17.207031 15.28125 L 16.84375 15.28125 L 16.84375 14.875 L 17.203125 14.875 C 17.394531 14.875 17.574219 14.886719 17.59375 14.898438 Z M 17.59375 14.898438 "/>
<path style=" stroke:none;fill-rule:nonzero;fill:rgb(0%,0%,0%);fill-opacity:1;" d="M 16.9375 15.078125 L 16.9375 15.21875 L 17.210938 15.21875 C 17.519531 15.21875 17.605469 15.1875 17.605469 15.078125 C 17.605469 14.96875 17.519531 14.9375 17.210938 14.9375 L 16.9375 14.9375 Z M 16.9375 15.078125 "/>
<path style=" stroke:none;fill-rule:nonzero;fill:rgb(0%,0%,0%);fill-opacity:1;" d="M 3.050781 13.738281 C 2.820312 13.835938 2.691406 14.019531 2.691406 14.265625 C 2.6875 14.457031 2.757812 14.589844 2.914062 14.710938 C 3.027344 14.792969 3.042969 14.796875 3.523438 14.8125 C 3.8125 14.820312 4.046875 14.847656 4.085938 14.867188 C 4.125 14.886719 4.171875 14.945312 4.195312 15 C 4.230469 15.085938 4.230469 15.105469 4.171875 15.179688 L 4.109375 15.265625 L 2.828125 15.28125 L 2.828125 15.625 L 3.632812 15.625 C 4.378906 15.625 4.441406 15.621094 4.539062 15.5625 C 4.679688 15.476562 4.765625 15.285156 4.765625 15.054688 C 4.765625 14.835938 4.699219 14.679688 4.5625 14.585938 C 4.472656 14.523438 4.417969 14.515625 3.929688 14.5 C 3.417969 14.484375 3.390625 14.480469 3.332031 14.410156 C 3.253906 14.316406 3.257812 14.203125 3.335938 14.125 C 3.398438 14.066406 3.441406 14.0625 4.019531 14.0625 L 4.640625 14.0625 L 4.640625 13.6875 L 3.902344 13.6875 C 3.316406 13.691406 3.140625 13.699219 3.050781 13.738281 Z M 3.050781 13.738281 "/>
<path style=" stroke:none;fill-rule:nonzero;fill:rgb(0%,0%,0%);fill-opacity:1;" d="M 10.144531 20.378906 C 9.96875 20.464844 9.804688 20.65625 9.722656 20.871094 C 9.664062 21.023438 9.65625 21.097656 9.667969 21.390625 C 9.675781 21.6875 9.691406 21.757812 9.765625 21.894531 C 9.878906 22.109375 10.070312 22.269531 10.269531 22.308594 C 10.355469 22.328125 10.632812 22.34375 10.882812 22.34375 L 11.34375 22.34375 L 11.34375 21.96875 L 10.890625 21.96875 C 10.53125 21.96875 10.421875 21.960938 10.367188 21.917969 C 10.097656 21.734375 10.0625 21.007812 10.3125 20.757812 L 10.417969 20.65625 L 11.34375 20.65625 L 11.34375 20.3125 L 10.816406 20.3125 C 10.335938 20.3125 10.269531 20.320312 10.144531 20.378906 Z M 10.144531 20.378906 "/>
</g>
</svg>
