<?xml version="1.0" standalone="no"?>
<!DOCTYPE svg PUBLIC "-//W3C//DTD SVG 20010904//EN"
 "http://www.w3.org/TR/2001/REC-SVG-20010904/DTD/svg10.dtd">
<svg version="1.0" xmlns="http://www.w3.org/2000/svg"
 width="1200.000000pt" height="1704.000000pt" viewBox="0 0 1200.000000 1704.000000"
 preserveAspectRatio="xMidYMid meet">

<g transform="translate(0.000000,1704.000000) scale(0.100000,-0.100000)"
fill="#000000" stroke="none">
<path d="M7665 15893 c-863 -591 -1919 -1314 -2345 -1606 -665 -455 -1573
-1082 -1970 -1361 -526 -370 -991 -850 -1218 -1257 -550 -987 -701 -2145 -421
-3244 394 -1555 1630 -2785 3187 -3174 388 -97 635 -126 1067 -126 343 0 462
9 736 55 1119 189 2134 806 2821 1717 965 1277 1157 2986 501 4443 -294 650
-730 1210 -1302 1668 -64 52 -123 98 -133 103 -12 7 -109 -56 -435 -282 -230
-160 -424 -296 -430 -303 -10 -9 10 -25 90 -73 303 -182 612 -453 842 -741 97
-120 255 -350 255 -370 0 -18 -41 -78 -176 -257 -213 -283 -326 -446 -326
-469 0 -12 44 -126 97 -254 83 -196 102 -232 124 -241 14 -5 112 -21 216 -36
202 -28 535 -82 541 -88 2 -1 11 -64 20 -138 22 -175 22 -479 0 -659 -21 -174
-65 -412 -80 -426 -6 -6 -103 -26 -216 -43 -113 -18 -227 -36 -255 -42 -27 -5
-85 -13 -127 -19 -43 -5 -95 -18 -115 -29 -37 -19 -40 -24 -107 -213 -38 -106
-80 -221 -93 -256 -16 -42 -22 -67 -15 -75 5 -7 98 -126 206 -265 l197 -254
-24 -36 c-133 -201 -387 -468 -621 -654 -92 -74 -268 -198 -281 -198 -3 0 -43
25 -90 56 l-85 57 -2 2853 -3 2854 -335 -233 -335 -233 -6 -1359 c-3 -748 -7
-1970 -9 -2715 -1 -745 -5 -1433 -9 -1529 l-6 -175 -150 -38 c-151 -38 -422
-88 -476 -88 l-29 0 0 2731 c0 1510 -4 2729 -9 2727 -4 -2 -157 -106 -338
-232 l-330 -230 -6 -1020 c-4 -560 -7 -1349 -7 -1751 0 -402 -3 -1063 -7
-1468 l-6 -737 -31 0 c-52 0 -262 39 -446 83 l-175 43 -3 2203 c-2 1787 -4
2202 -15 2198 -7 -3 -160 -107 -340 -232 l-327 -227 0 -1814 c0 -1265 -3
-1814 -11 -1814 -17 0 -218 129 -335 215 -672 498 -1162 1259 -1323 2055 -12
58 -27 128 -33 157 -6 29 -9 83 -6 120 4 45 3 60 -3 43 -6 -17 -7 -3 -5 45 3
46 1 60 -4 40 -7 -28 -8 -28 -9 -5 -1 14 -6 90 -11 170 -11 162 0 437 26 610
136 926 654 1769 1424 2316 108 77 176 120 309 196 58 33 531 353 1051 711
520 359 1453 999 2074 1424 l1129 771 249 554 c137 304 289 642 338 751 48
108 85 197 82 197 -4 -1 -713 -485 -1577 -1077z"/>
<path d="M7150 13848 c-778 -534 -1921 -1316 -2540 -1738 l-1125 -767 -3 -527
c-1 -348 1 -527 8 -524 5 1 1151 783 2545 1737 l2535 1734 0 529 c0 290 -1
528 -2 528 -2 -1 -640 -438 -1418 -972z"/>
<path d="M4220 12464 c-246 -149 -424 -288 -630 -493 -126 -125 -130 -129 -30
-36 166 155 368 314 585 460 185 125 214 145 205 145 -3 0 -61 -34 -130 -76z"/>
<path d="M0 1895 l0 -1837 763 5 c711 4 771 5 892 25 221 35 369 79 520 155
268 134 442 340 515 612 31 115 39 369 16 486 -64 316 -276 540 -609 644 -48
15 -87 31 -87 36 0 4 37 27 83 51 145 76 280 226 348 388 92 218 97 507 13
714 -115 282 -388 456 -839 532 -87 15 -202 18 -857 21 l-758 4 0 -1836z
m1410 1310 c228 -34 375 -127 431 -273 33 -87 39 -257 11 -349 -60 -197 -242
-317 -532 -353 -46 -5 -214 -10 -372 -10 l-288 0 0 500 0 500 328 0 c234 0
354 -4 422 -15z m107 -1499 c304 -54 474 -177 528 -381 19 -76 19 -234 0 -310
-52 -203 -203 -338 -446 -399 -139 -35 -290 -46 -632 -46 l-307 0 0 581 0 581
383 -5 c292 -3 404 -8 474 -21z"/>
<path d="M3410 1895 l0 -1835 330 0 330 0 0 1565 0 1565 795 0 795 0 0 270 0
270 -1125 0 -1125 0 0 -1835z"/>
<path d="M5980 3460 l0 -270 530 0 530 0 0 -1565 0 -1565 330 0 330 0 2 1562
3 1563 538 3 537 2 0 270 0 270 -1400 0 -1400 0 0 -270z"/>
<path d="M8980 3704 c0 -3 284 -619 630 -1369 l631 -1364 -51 -102 c-29 -57
-71 -122 -97 -150 -80 -86 -203 -129 -363 -129 -61 1 -197 21 -231 34 -13 6
-26 -39 -81 -276 -36 -156 -65 -284 -64 -285 2 -2 38 -12 82 -24 102 -27 394
-38 512 -19 93 15 219 53 287 88 197 99 373 290 503 547 25 49 319 757 652
1573 l607 1482 -331 0 -331 0 -262 -693 c-144 -380 -322 -860 -395 -1065 -73
-204 -138 -372 -144 -372 -13 0 -19 15 -193 475 -61 160 -240 597 -398 972
l-288 683 -337 0 c-186 0 -338 -3 -338 -6z"/>
</g>
</svg>
