<?xml version="1.0" standalone="no"?>
<!DOCTYPE svg PUBLIC "-//W3C//DTD SVG 20010904//EN"
 "http://www.w3.org/TR/2001/REC-SVG-20010904/DTD/svg10.dtd">
<svg version="1.0" xmlns="http://www.w3.org/2000/svg"
 width="661.000000pt" height="800.000000pt" viewBox="0 0 661.000000 800.000000"
 preserveAspectRatio="xMidYMid meet">

<g transform="translate(0.000000,800.000000) scale(0.100000,-0.100000)"
fill="#000000" stroke="none">
<path d="M2405 7820 c-38 -94 -70 -170 -71 -170 -2 0 -82 31 -178 69 -97 38
-176 68 -176 66 0 -1 31 -77 69 -169 l69 -167 -32 -13 c-17 -7 -93 -37 -168
-67 -76 -30 -138 -56 -138 -59 0 -3 79 -39 175 -80 96 -41 175 -75 175 -76 0
-1 -34 -81 -75 -179 -42 -98 -74 -179 -72 -181 1 -2 79 30 172 70 94 41 173
71 176 68 3 -4 37 -82 75 -174 38 -93 71 -168 74 -168 3 0 27 55 54 123 27 67
60 145 72 174 l23 52 172 -75 c95 -40 173 -73 174 -71 2 1 -28 75 -66 165 -37
89 -70 171 -74 181 -4 15 22 29 170 92 96 41 175 76 175 79 0 3 -75 34 -166
70 -91 35 -167 67 -169 70 -2 3 27 80 65 170 38 90 68 165 67 166 -1 1 -80
-29 -176 -67 -95 -39 -175 -68 -177 -67 -7 7 -134 318 -134 328 0 34 -23 -10
-85 -160z m134 -103 c30 -72 55 -133 56 -134 1 -2 64 22 140 52 76 30 140 53
142 51 2 -1 -21 -62 -52 -135 -54 -131 -54 -132 -32 -141 12 -6 72 -30 132
-53 61 -24 109 -47 108 -52 -1 -6 -153 -76 -250 -115 -22 -9 -21 -11 37 -152
32 -79 57 -144 55 -147 -2 -2 -62 22 -133 53 -71 31 -133 56 -138 56 -5 0 -27
-44 -48 -98 -22 -53 -48 -117 -58 -142 l-19 -45 -58 140 c-32 76 -63 141 -68
142 -5 2 -67 -22 -137 -53 -70 -30 -130 -53 -133 -51 -2 3 21 65 51 139 31 74
56 138 56 143 0 6 -63 37 -140 69 -77 32 -140 60 -140 61 0 2 173 73 257 106
21 8 21 10 -33 136 -30 70 -53 131 -52 135 2 4 64 -17 138 -46 74 -30 137 -52
140 -51 3 2 30 62 60 134 29 72 56 131 59 131 3 0 30 -60 60 -133z"/>
<path d="M4125 7820 c-38 -94 -72 -170 -75 -170 -3 1 -81 31 -175 69 -93 37
-171 67 -173 65 -2 -1 26 -73 62 -160 37 -87 66 -162 66 -168 0 -6 -74 -40
-165 -76 -91 -36 -165 -67 -165 -70 0 -3 79 -39 175 -80 97 -41 173 -79 171
-85 -2 -5 -36 -86 -75 -179 -39 -93 -70 -171 -68 -172 2 -2 79 30 172 70 94
41 173 71 176 68 3 -4 37 -82 74 -174 38 -93 71 -168 74 -168 3 0 28 55 55
123 27 67 60 145 72 174 l23 52 171 -75 c94 -40 172 -74 174 -74 2 0 -27 73
-64 163 -37 89 -70 171 -74 183 -6 19 10 27 169 95 96 41 174 76 175 79 0 3
-74 34 -165 69 -91 35 -168 67 -170 71 -2 3 27 80 64 171 38 90 68 165 67 166
-1 1 -79 -30 -175 -68 -95 -39 -175 -68 -178 -65 -3 2 -34 76 -70 163 -35 87
-68 161 -71 165 -4 4 -38 -69 -77 -162z m134 -105 c30 -74 55 -135 55 -135 1
0 64 25 140 55 77 30 141 53 143 52 1 -2 -22 -61 -51 -133 -30 -71 -51 -132
-48 -136 4 -4 63 -29 130 -55 68 -27 124 -52 124 -57 -1 -5 -58 -34 -129 -64
-70 -30 -131 -57 -135 -61 -3 -3 20 -69 52 -146 32 -77 57 -142 55 -144 -3 -2
-63 22 -133 53 -71 31 -133 56 -138 56 -5 0 -34 -61 -64 -136 -30 -75 -57
-137 -60 -139 -3 -2 -30 56 -59 128 -30 73 -58 136 -62 141 -4 5 -66 -16 -140
-48 -72 -31 -134 -54 -137 -52 -2 3 21 66 52 140 31 74 56 138 56 143 0 4 -63
35 -140 67 -77 32 -140 60 -140 61 0 2 60 27 133 56 72 29 134 54 136 56 3 2
-19 62 -48 134 -29 71 -52 132 -49 134 2 2 64 -20 138 -50 74 -29 138 -50 142
-47 3 4 30 64 58 135 29 70 55 127 59 127 3 0 30 -61 60 -135z"/>
<path d="M2972 6335 c-1035 -118 -1928 -739 -2392 -1664 -149 -299 -237 -578
-293 -931 -18 -116 -21 -177 -21 -435 0 -259 3 -319 22 -440 85 -544 297
-1033 632 -1455 103 -131 353 -381 484 -485 438 -348 941 -561 1517 -641 174
-25 596 -25 764 -1 376 54 652 139 975 299 311 153 555 330 805 582 481 485
765 1063 862 1751 27 193 24 627 -4 815 -75 481 -228 880 -488 1270 -121 181
-199 275 -379 456 -184 184 -273 257 -476 392 -380 254 -791 408 -1270 478
-150 22 -579 27 -738 9z m533 -85 c929 -69 1743 -543 2259 -1314 322 -482 487
-1031 488 -1626 1 -211 -8 -321 -43 -520 -194 -1114 -1027 -2027 -2125 -2329
-256 -71 -491 -101 -779 -101 -480 0 -879 93 -1311 305 -287 141 -545 326
-774 555 -742 741 -1033 1801 -775 2820 129 508 394 971 774 1351 448 448
1001 730 1623 829 238 37 437 46 663 30z"/>
<path d="M3110 5959 c-461 -34 -903 -186 -1287 -445 -165 -111 -255 -185 -399
-329 -363 -362 -605 -802 -718 -1308 -77 -340 -82 -724 -15 -1072 190 -983
907 -1768 1877 -2054 395 -117 880 -134 1291 -46 394 85 783 267 1097 516 114
91 323 298 417 414 541 670 724 1560 491 2397 -206 740 -756 1379 -1463 1698
-290 131 -593 206 -926 230 -156 11 -198 11 -365 -1z m530 -294 l0 -85 -157 0
c-109 -1 -163 -4 -173 -13 -19 -14 -50 -58 -50 -69 0 -5 86 -8 190 -8 l190 0
0 -80 0 -80 -190 0 -189 0 -3 -127 -3 -128 -82 -3 -83 -3 0 130 0 130 -62 3
c-35 2 -62 6 -60 11 1 4 2 39 2 77 l0 70 60 0 60 0 0 35 c0 98 82 187 197 214
21 5 109 9 196 10 l157 1 0 -85z m-160 -1135 c89 -217 163 -396 165 -398 1 -1
44 15 96 37 573 236 711 292 715 289 2 -3 -48 -130 -112 -284 -169 -409 -216
-525 -212 -528 1 -2 165 -69 363 -151 489 -201 453 -185 435 -195 -8 -4 -190
-81 -405 -170 -214 -88 -391 -163 -393 -164 -3 -3 84 -218 242 -600 48 -115
85 -210 83 -212 -3 -3 -311 122 -710 288 -54 22 -99 39 -101 37 -3 -2 -79
-185 -171 -407 -93 -222 -171 -400 -175 -395 -4 4 -80 186 -170 403 -90 217
-164 397 -166 399 -3 3 -199 -75 -578 -233 -127 -53 -232 -94 -234 -91 -4 3
47 128 289 714 22 52 38 95 37 97 -2 1 -174 73 -383 159 -209 87 -391 163
-405 170 l-25 14 40 17 c22 9 202 84 400 166 198 82 363 152 367 156 3 4 -15
59 -41 122 -199 477 -282 683 -278 687 3 2 133 -48 289 -112 481 -199 521
-215 523 -213 1 2 68 165 150 363 195 474 185 450 194 439 4 -5 81 -187 171
-404z m2119 -889 c137 -27 197 -201 106 -309 l-25 -29 21 -19 c74 -67 63 -206
-21 -277 -51 -43 -88 -48 -325 -45 l-220 3 0 245 0 245 98 3 97 3 0 -41 0 -40
94 0 c76 0 95 3 100 16 10 26 7 61 -7 73 -9 6 -83 12 -198 13 l-184 3 -3 69
c-2 38 -1 75 2 83 4 10 48 13 213 13 114 -1 228 -5 252 -9z m-4109 -81 l0 -80
-203 0 c-213 0 -227 -3 -227 -45 0 -40 17 -45 169 -45 164 0 205 -12 254 -69
86 -103 44 -295 -76 -340 -17 -7 -129 -11 -288 -11 l-259 0 0 80 0 80 194 0
c213 0 246 6 246 44 0 47 -31 56 -180 56 -127 0 -140 2 -189 26 -78 39 -106
87 -106 180 0 64 3 77 30 115 17 23 50 53 74 66 43 22 51 23 303 23 l258 0 0
-80z m2105 -2115 l0 -80 -164 -5 -165 -5 -20 -34 c-14 -24 -21 -59 -24 -116
-5 -88 6 -137 39 -179 20 -26 21 -26 180 -26 l159 0 0 -85 0 -85 -193 0 c-176
0 -196 2 -232 21 -60 32 -93 67 -128 139 -31 62 -32 70 -32 185 0 109 2 125
27 177 32 70 103 141 161 162 32 11 82 14 217 13 l175 -2 0 -80z"/>
<path d="M3267 5706 c-98 -35 -142 -89 -154 -186 l-6 -50 -58 0 -59 0 0 -55 0
-55 60 0 60 0 0 -130 0 -130 65 0 65 0 0 130 0 130 191 0 190 0 -3 53 -3 52
-187 3 -188 2 0 29 c0 16 9 40 21 55 38 49 66 56 219 56 l140 0 0 55 0 55
-157 0 c-107 -1 -170 -5 -196 -14z"/>
<path d="M5160 3565 l0 -55 174 0 c151 0 177 -2 195 -17 32 -26 38 -82 13
-113 -19 -24 -25 -25 -129 -25 l-108 0 -3 38 -3 37 -70 0 -69 0 0 -220 0 -220
220 0 c250 0 278 7 320 75 45 73 22 200 -40 220 -26 8 -25 17 6 46 85 79 68
221 -31 269 -37 18 -62 20 -258 20 l-217 0 0 -55z m376 -333 c15 -10 34 -47
34 -66 0 -9 -9 -25 -20 -36 -18 -18 -33 -20 -135 -20 l-115 0 0 65 0 65 113 0
c61 0 117 -4 123 -8z"/>
<path d="M5330 3175 l0 -45 86 0 c97 0 124 10 124 45 0 35 -27 45 -124 45
l-86 0 0 -45z"/>
<path d="M960 3604 c-73 -32 -113 -90 -113 -169 -1 -61 21 -104 70 -142 35
-27 41 -28 192 -33 91 -3 165 -11 177 -17 12 -7 27 -26 34 -43 11 -28 11 -34
-7 -58 l-20 -27 -202 -3 -201 -2 0 -55 0 -55 253 0 c235 0 254 1 285 20 44 27
72 89 72 163 0 70 -21 119 -64 150 -28 20 -46 22 -199 27 -162 5 -170 6 -188
29 -25 30 -24 66 1 91 19 19 33 20 215 20 l195 0 0 60 0 60 -232 0 c-185 -1
-240 -4 -268 -16z"/>
<path d="M3192 1479 c-55 -28 -107 -89 -133 -158 -18 -48 -20 -72 -17 -166 3
-95 8 -117 31 -161 35 -69 96 -120 159 -133 27 -6 114 -11 193 -11 l145 0 0
60 0 60 -143 0 c-113 0 -147 3 -165 16 -85 59 -96 292 -17 371 l33 33 146 0
146 0 0 55 0 55 -167 0 c-151 0 -172 -2 -211 -21z"/>
</g>
</svg>
